<svg id="svg2" xmlns="http://www.w3.org/2000/svg" xmlns:xlink="http://www.w3.org/1999/xlink" viewBox="0 0 1024 1024"><defs><filter id="dropShadowAlpha" name="dropShadowAlpha"><feColorMatrix result="matrixOut" type="saturate" values="0.1" in="SourceAlpha"/><feGaussianBlur result="blur-out" stdDeviation="6" in="matrixOut"/><feColorMatrix result="color-out" values="0 0 0 0 0 0 0 0 0 0 0 0 0 0 0 0 0 0 0.35 0" in="blur-out"/></filter></defs><circle cx="510.23" cy="510.23" r="353.1" style="fill:#fff"/><g style="filter:url(#dropShadowAlpha)"><path d="M509.61,368.29l-24.69,99c28,7,114.29,35.43,128.28-20.58C627.76,388.29,537.61,375.26,509.61,368.29Z" style="fill:#1e58a1"/></g><g style="filter:url(#dropShadowAlpha)"><path d="M472.47,517.27,445.23,626.43c33.62,8.35,137.31,41.64,152.63-19.94C613.88,542.27,506.08,525.66,472.47,517.27Z" style="fill:#1e58a1"/></g><path d="M621.23,73.54c-242.08-60.36-487.32,87-547.66,329.17s87,487.36,329,547.73,487.4-87,547.76-329.11S863.38,133.91,621.23,73.54Zm89.93,374.07c-6.51,44-30.92,65.34-63.32,72.81,44.5,23.16,67.14,58.68,45.57,120.27-26.76,76.48-90.35,82.93-174.91,66.93L498,789.86l-49.59-12.35,20.26-81.15c-12.85-3.19-26-6.58-39.52-10.25l-20.33,81.52-49.53-12.36,20.52-82.4c-11.58-3-23.35-6.11-35.35-9.12L279.9,647.66l24.61-56.76s36.54,9.71,36.05,9c14,3.48,20.27-5.67,22.73-11.78l32.42-130,.09-.35,23.13-92.81c.61-10.54-3-23.83-23.1-28.84.77-.52-36-9-36-9l13.19-53,68.39,17.08-.05.25c10.28,2.56,20.87,5,31.66,7.44l20.33-81.44,49.56,12.36L523,309.71c13.31,3,26.7,6.11,39.73,9.36l19.78-79.33,49.59,12.36-20.31,81.47C674.37,355.14,720.16,387.47,711.16,447.61Z" style="fill:#1e58a1"/></svg>